Coordinates
version=1
nRows=24
nColumns=24
inDegrees=yes

Units are S.I. units (second, meters, Newtons, ...)
Angles are in degrees.

endheader
time	pelvis_tilt	pelvis_list	pelvis_rotation	pelvis_tx	pelvis_ty	pelvis_tz	hip_flexion_r	hip_adduction_r	hip_rotation_r	knee_angle_r	ankle_angle_r	subtalar_angle_r	mtp_angle_r	hip_flexion_l	hip_adduction_l	hip_rotation_l	knee_angle_l	ankle_angle_l	subtalar_angle_l	mtp_angle_l	lumbar_extension	lumbar_bending	lumbar_rotation
      0.61200000	      1.33602451	      7.96617162	     -3.57895662	     -0.82116977	      1.05135578	      0.28706880	     21.99344030	     -3.15574177	    -10.95408463	      3.57111057	      6.73497836	      4.77617504	      0.16950704	    -21.23598933	     13.97785029	     -4.38355766	      0.75726112	      1.77191025	     -4.56671686	     -0.03718940	      2.39861671	     -6.57290031	     -0.75619523
      0.61616667	      1.30659645	      7.95518162	     -3.51243508	     -0.81512181	      1.05111488	      0.28714001	     21.90776349	     -3.11819553	    -10.84690905	      3.32927264	      6.76571871	      4.77682643	      0.17535455	    -21.35503880	     13.90769288	     -4.31981935	      0.37810338	      1.73902269	     -4.56690874	     -0.03736216	      2.47211376	     -6.51844305	     -0.76997613
      0.62033333	      1.28064830	      7.92850236	     -3.42499823	     -0.80901120	      1.05090194	      0.28716343	     21.80248895	     -3.07772959	    -10.70002944	      3.06587687	      6.84218176	      4.75482841	      0.18321259	    -21.48778911	     13.81397254	     -4.22197099	      0.00024502	      1.65302332	     -4.54050078	     -0.03667507	      2.55614038	     -6.42989495	     -0.79035533
      0.62450000	      1.26429095	      7.84178381	     -3.32631595	     -0.80264798	      1.05075848	      0.28717362	     21.62649857	     -2.98172793	    -10.44683861	      2.83760592	      7.06955605	      4.58239414	      0.20495081	    -21.65020574	     13.64828022	     -4.04408812	     -0.34898266	      1.41227122	     -4.45755813	     -0.03034008	      2.60729267	     -6.26207684	     -0.85508744
      0.62866667	      1.33865594	      7.77439951	     -3.25290161	     -0.79645162	      1.05072771	      0.28724784	     21.36411061	     -2.90693104	    -10.07349644	      2.59357281	      7.14545286	      4.14707834	      0.24596321	    -21.86872161	     13.50989177	     -3.98420068	     -0.74725850	      1.11786704	     -4.41476827	     -0.00359282	      2.53991562	     -6.13888064	     -0.96659649
      0.63283333	      1.32868131	      7.75273809	     -3.17700611	     -0.79026546	      1.05057771	      0.28725908	     21.24458274	     -2.88017337	     -9.91676394	      2.25180777	      7.09695851	      4.12401192	      0.25169214	    -21.97068368	     13.42476717	     -3.94871395	     -1.20197080	      1.06563741	     -4.41691048	      0.00163622	      2.60035264	     -6.08521981	     -0.97577935
      0.63700000	      1.45787789	      7.63582069	     -3.13353445	     -0.78396650	      1.05065967	      0.28746752	     20.86705742	     -2.74340233	     -9.28014387	      2.08964274	      6.82726601	      3.19463876	      0.33120288	    -22.22699707	     13.23327899	     -4.03046042	     -1.63158246	      0.69243621	     -4.31362667	      0.10541524	      2.45807230	     -5.93371424	     -1.11637554
      0.64116667	      1.42306168	      7.58402489	     -3.02659874	     -0.77763800	      1.05055044	      0.28746113	     20.71804738	     -2.70000471	     -8.98326535	      1.80484998	      6.73210083	      3.15973510	      0.35043214	    -22.29981137	     13.09530855	     -3.90796421	     -2.09957343	      0.56843372	     -4.22501251	      0.13292504	      2.52912258	     -5.81273035	     -1.13268433
      0.64533333	      1.42178927	      7.54747661	     -2.92416367	     -0.77138394	      1.05050199	      0.28743758	     20.55702521	     -2.67957533	     -8.80615903	      1.47897534	      6.64527604	      3.13360445	      0.35759044	    -22.37303511	     12.97934718	     -3.88729038	     -2.62432775	      0.45271190	     -4.20349611	      0.14341718	      2.60660114	     -5.72543525	     -1.14298549
      0.64950000	      1.40152986	      7.38731735	     -2.79991481	     -0.76472628	      1.05053097	      0.28750729	     20.29782892	     -2.52547406	     -8.40974981	      1.33827669	      6.20847635	      2.83189470	      0.38564017	    -22.45826591	     12.70728149	     -3.89419971	     -3.09540455	     -0.06697127	     -3.98820202	      0.19731512	      2.63032837	     -5.47871386	     -1.21853798
      0.65366667	      1.57094398	      7.27300216	     -2.81834702	     -0.75851048	      1.05072640	      0.28794092	     19.87001651	     -2.37340630	     -7.61825461	      1.20313584	      5.62898584	      1.48568994	      0.53030524	    -22.66582195	     12.51960267	     -4.21091201	     -3.66436142	     -0.25263245	     -3.65322166	      0.50855350	      2.49841570	     -5.36077966	     -1.34690855
      0.65783333	      1.55983412	      7.22363843	     -2.70260487	     -0.75221547	      1.05077253	      0.28794500	     19.69802945	     -2.35151119	     -7.46429497	      0.91675857	      5.50965994	      1.52424375	      0.53828165	    -22.67735989	     12.37196269	     -4.20796196	     -4.28311606	     -0.38681012	     -3.63662252	      0.52322973	      2.57247500	     -5.26321088	     -1.35106159
      0.66200000	      1.55267361	      7.03703373	     -2.60606709	     -0.74551581	      1.05089605	      0.28803436	     19.44618925	     -2.17356671	     -7.29346281	      0.74276569	      4.74311638	      1.34190981	      0.58303514	    -22.71567057	     12.07878815	     -4.39273994	     -4.83186674	     -1.04885961	     -3.34184596	      0.63241048	      2.66914371	     -4.94885935	     -1.41862412
      0.66616667	      1.59426862	      6.87117597	     -2.51534419	     -0.73896818	      1.05110512	      0.28819786	     19.14942598	     -2.01852043	     -7.04790008	      0.57414460	      4.10598337	      0.99771706	      0.64789290	    -22.76349204	     11.79927607	     -4.62701416	     -5.46324918	     -1.46684810	     -3.08405538	      0.79412713	      2.67045225	     -4.71890078	     -1.48834512
      0.67033333	      1.59432964	      6.79910118	     -2.38526138	     -0.73268900	      1.05129596	      0.28823190	     18.94879829	     -1.98737813	     -6.88296981	      0.30937314	      3.96318026	      1.00188819	      0.65903987	    -22.72052607	     11.60770177	     -4.67443037	     -6.18114497	     -1.60214450	     -3.07215058	      0.81935493	      2.71182900	     -4.62548633	     -1.49669552
      0.67450000	      1.61178271	      6.56393053	     -2.31276735	     -0.72592353	      1.05154408	      0.28842449	     18.67075927	     -1.75519866	     -6.76847965	      0.14645458	      2.99475614	      0.64408866	      0.71630812	    -22.72103754	     11.25478155	     -5.03709598	     -6.82587057	     -2.35975261	     -2.68483625	      0.98292355	      2.76518629	     -4.27390547	     -1.59270229
      0.67866667	      1.77539318	      6.33690428	     -2.24868945	     -0.71941137	      1.05201938	      0.28885373	     18.18911650	     -1.52639104	     -6.16575452	      0.09089555	      2.21603057	     -0.32026955	      0.93271563	    -22.83250445	     10.88169275	     -5.41338313	     -7.56443037	     -2.66685218	     -2.14598960	      1.56032488	      2.65794669	     -4.07925639	     -1.68933742
      0.68283333	      1.70925278	      6.18013930	     -2.11279534	     -0.71288297	      1.05222665	      0.28895124	     18.06414115	     -1.40026826	     -6.21630509	     -0.20768378	      1.85250206	     -0.34515347	      0.97125508	    -22.66085443	     10.57917097	     -5.68471889	     -8.37641745	     -3.08674633	     -2.07012595	      1.66389333	      2.58742339	     -3.85099047	     -1.72044819
      0.68700000	      1.71629674	      5.98256722	     -1.98653704	     -0.70627477	      1.05257268	      0.28904989	     17.84256052	     -1.23902874	     -6.24287335	     -0.46920661	      1.25699639	     -0.37909679	      1.01611941	    -22.56139575	     10.23255878	     -5.96594133	     -9.18626886	     -3.70435089	     -1.87785378	      1.79368136	      2.66142610	     -3.58660305	     -1.75688314
      0.69116667	      1.79700709	      5.79366103	     -1.96449168	     -0.69981640	      1.05297452	      0.28918546	     17.59742904	     -1.07303176	     -6.25958010	     -0.80291502	      0.54807505	     -0.57282433	      1.09602574	    -22.52024964	      9.93994379	     -6.25879488	     -9.98655484	     -4.39498949	     -1.59810008	      2.03340046	      2.75905276	     -3.25714615	     -1.81353805
      0.69533333	      1.82788794	      5.58780744	     -1.87412707	     -0.69331378	      1.05337716	      0.28934160	     17.38477276	     -0.89755912	     -6.27889467	     -1.12175722	      0.02032978	     -0.74864852	      1.16965184	    -22.38943294	      9.58633657	     -6.58511229	    -10.88385504	     -4.98087444	     -1.40865463	      2.25736552	      2.74207073	     -2.97609711	     -1.85893923
      0.69950000	      1.87947175	      5.37332286	     -1.79547691	     -0.68683977	      1.05382838	      0.28949829	     17.15865549	     -0.71578249	     -6.29388881	     -1.45999690	     -0.52813619	     -0.91810929	      1.24918522	    -22.25753839	      9.22349174	     -6.90202694	    -11.80528192	     -5.62159944	     -1.20848283	      2.50651779	      2.74572621	     -2.67767462	     -1.89980025
      0.70366667	      1.93224720	      5.15466646	     -1.71857340	     -0.68039771	      1.05430029	      0.28966757	     16.94192478	     -0.53052899	     -6.32544110	     -1.82403325	     -1.02469559	     -1.08004979	      1.33192553	    -22.09824740	      8.84928140	     -7.22055131	    -12.77851350	     -6.28440754	     -1.03421686	      2.77213009	      2.73568013	     -2.37927735	     -1.93309135
      0.70783333	      1.92544128	      4.94352807	     -1.59269211	     -0.67398464	      1.05474255	      0.28984342	     16.78069378	     -0.36105006	     -6.33147495	     -2.18384976	     -1.30260969	     -1.11208065	      1.37060975	    -21.83676303	      8.45218631	     -7.48045987	    -13.83453950	     -6.72432383	     -0.97968640	      2.89676096	      2.64339396	     -2.17378471	     -1.95244835
